HIERARCHY
ROOT root
{
	OFFSET 0.000000 0.000000 0.000000
	CHANNELS 6 Xposition Yposition Zposition Zrotation Yrotation Xrotation
	JOINT lhip
	{
		OFFSET 0.058581 -0.082280 -0.017664
		CHANNELS 3 Zrotation Yrotation Xrotation
		JOINT lknee
		{
			OFFSET 0.043451 -0.386469 0.008037
			CHANNELS 3 Zrotation Yrotation Xrotation
			JOINT lankle
			{
				OFFSET -0.014790 -0.426874 -0.037428
				CHANNELS 3 Zrotation Yrotation Xrotation
				JOINT ltoe
				{
					OFFSET 0.041054 -0.060286 0.122042
					CHANNELS 3 Zrotation Yrotation Xrotation
					End Site
					{
						OFFSET 0.000000 0.000000 0.000000
					}
				}
			}
		}
	}
	JOINT rhip
	{
		OFFSET -0.060310 -0.090513 -0.013543
		CHANNELS 3 Zrotation Yrotation Xrotation
		JOINT rknee
		{
			OFFSET -0.043257 -0.383688 -0.004843
			CHANNELS 3 Zrotation Yrotation Xrotation
			JOINT rankle
			{
				OFFSET 0.019056 -0.420046 -0.034562
				CHANNELS 3 Zrotation Yrotation Xrotation
				JOINT rtoe
				{
					OFFSET -0.034840 -0.062106 0.130323
					CHANNELS 3 Zrotation Yrotation Xrotation
					End Site
					{
						OFFSET 0.000000 0.000000 0.000000
					}
				}
			}
		}
	}
	JOINT lowerback
	{
		OFFSET 0.004439 0.124404 -0.038385
		CHANNELS 3 Zrotation Yrotation Xrotation
		JOINT upperback
		{
			OFFSET 0.004488 0.137956 0.026820
			CHANNELS 3 Zrotation Yrotation Xrotation
			JOINT chest
			{
				OFFSET -0.002265 0.056032 0.002855
				CHANNELS 3 Zrotation Yrotation Xrotation
				JOINT lowerneck
				{
					OFFSET -0.013390 0.211636 -0.033468
					CHANNELS 3 Zrotation Yrotation Xrotation
					JOINT upperneck
					{
						OFFSET 0.010113 0.088937 0.050410
						CHANNELS 3 Zrotation Yrotation Xrotation
						End Site
						{
							OFFSET 0.000000 0.000000 0.000000
						}
					}
				}
				JOINT lclavicle
				{
					OFFSET 0.071702 0.114000 -0.018898
					CHANNELS 3 Zrotation Yrotation Xrotation
					JOINT lshoulder
					{
						OFFSET 0.122921 0.045205 -0.019046
						CHANNELS 3 Zrotation Yrotation Xrotation
						JOINT lelbow
						{
							OFFSET 0.255332 -0.015649 -0.022946
							CHANNELS 3 Zrotation Yrotation Xrotation
							JOINT lwrist
							{
								OFFSET 0.265709 0.012698 -0.007375
								CHANNELS 3 Zrotation Yrotation Xrotation
								End Site
								{
									OFFSET 0.000000 0.000000 0.000000
								}
							}
						}
					}
				}
				JOINT rclavicle
				{
					OFFSET -0.082954 0.112472 -0.023707
					CHANNELS 3 Zrotation Yrotation Xrotation
					JOINT rshoulder
					{
						OFFSET -0.113228 0.046853 -0.008472
						CHANNELS 3 Zrotation Yrotation Xrotation
						JOINT relbow
						{
							OFFSET -0.260127 -0.014369 -0.031269
							CHANNELS 3 Zrotation Yrotation Xrotation
							JOINT rwrist
							{
								OFFSET -0.269108 0.006794 -0.006027
								CHANNELS 3 Zrotation Yrotation Xrotation
								End Site
								{
									OFFSET 0.000000 0.000000 0.000000
								}
							}
						}
					}
				}
			}
		}
	}
}
MOTION
Frames: 6
Frame Time: 0.033333
0.991509 0.780014 0.993301 -90.905632 1.374555 90.418956 1.480859 -3.587466 -2.397477 -4.989315 -10.299214 8.274291 9.740454 5.762984 -12.578603 0.000000 -0.000000 0.000000 1.934474 -4.070054 -0.507234 1.844224 -2.286156 9.782169 0.936646 -3.241149 -12.969482 0.000000 -0.000000 0.000000 -4.635234 6.561490 1.072257 2.760443 -0.560225 5.554249 1.809212 1.122387 1.564400 1.859520 13.649102 4.716700 2.233449 5.403887 4.296130 -19.356121 0.802084 4.304216 -69.632114 -3.887562 13.276162 13.822163 -32.355254 23.856164 1.006126 5.544310 -1.894947 21.583609 -2.132258 6.850922 70.629113 2.778303 9.393550 -24.241500 24.786436 3.696105 5.540774 -4.967204 -5.115905 
0.989792 0.780603 0.993350 -90.358960 1.273859 89.538555 1.256239 -3.883548 -1.118347 -4.866269 -11.207675 7.864245 9.402673 6.386772 -12.528527 0.000000 -0.000000 0.000000 2.014293 -2.752242 1.209230 1.857965 -2.884345 8.769365 1.312893 -4.402839 -12.893539 0.000000 -0.000000 0.000000 -4.604717 6.271691 2.026618 2.561976 -0.502577 5.340015 1.903707 1.147308 1.950619 2.039977 13.859078 4.551162 2.089488 5.422109 4.424869 -19.171917 0.641211 4.202287 -69.736940 -3.959904 13.145544 13.860368 -32.329662 23.823407 0.794439 5.309471 -1.672798 21.634048 -1.838282 6.525260 70.709716 2.430575 9.531530 -24.383495 24.783487 3.396217 5.268790 -4.974175 -5.248109 
0.990063 0.781196 0.993283 -90.236311 1.278483 89.588226 1.322241 -3.847829 -1.272313 -4.892383 -11.232435 7.991282 9.305128 6.263686 -12.564840 0.000000 -0.000000 0.000000 2.075084 -2.705410 1.191302 1.860979 -3.048735 8.710008 1.168356 -4.430827 -12.892072 0.000000 -0.000000 0.000000 -4.579451 6.308761 2.036867 2.518175 -0.414195 5.258767 1.901825 1.155218 2.016556 2.109205 14.001678 4.578839 2.061146 5.613312 4.502023 -19.228801 0.704188 4.139355 -69.771029 -4.068768 13.095582 14.062697 -32.400015 23.744758 0.307471 5.268475 -1.430941 21.678741 -1.833437 6.496863 70.571534 2.414596 9.492600 -24.288275 24.766838 3.549927 6.251626 -4.546416 -5.369540 
0.990079 0.782230 0.992918 -89.935929 1.284109 89.661643 1.412500 -3.835360 -1.504248 -4.913236 -11.324644 8.252512 9.249961 6.109887 -12.583297 0.000000 -0.000000 0.000000 2.163674 -2.810220 1.208732 1.849389 -3.164696 8.609221 1.273312 -4.511942 -12.830386 0.000000 -0.000000 0.000000 -4.536813 6.331929 2.090867 2.478060 -0.378245 5.130540 1.935029 1.265205 1.949751 1.862519 14.224533 4.869401 1.967035 6.122420 4.269279 -19.254916 0.665406 4.181775 -69.792705 -4.167379 13.039148 13.927287 -32.457698 23.793600 0.584439 5.221290 -1.553156 21.709242 -1.871726 6.641407 70.423991 2.405386 9.264778 -24.468412 24.893724 3.527643 5.766245 -4.176877 -4.278279 
0.990024 0.782580 0.992813 -89.853968 1.264643 89.641284 1.425320 -3.839215 -1.472971 -4.937381 -11.361178 8.231136 9.255473 6.112616 -12.559511 0.000000 -0.000000 0.000000 2.166894 -2.828443 1.278785 1.845634 -3.219189 8.563512 1.241574 -4.528571 -12.835814 0.000000 -0.000000 0.000000 -4.536119 6.364721 2.068803 2.460739 -0.369694 5.215926 1.939870 1.271532 1.885975 1.798200 14.242473 4.962918 1.951643 6.199159 4.238150 -19.242168 0.485366 4.301864 -69.836802 -4.156931 13.042475 14.116496 -32.469602 23.594626 0.535764 5.194220 -1.693841 21.638620 -1.762174 6.798328 70.488111 2.418056 9.231978 -24.477881 24.918637 3.441542 5.895369 -4.203502 -4.760785 
0.990089 0.783143 0.992696 -89.625606 1.219832 89.579687 1.418431 -3.877394 -1.437986 -4.942702 -11.501295 8.251621 9.167948 6.044820 -12.527173 0.000000 -0.000000 0.000000 2.163233 -2.898297 1.418629 1.827683 -3.349136 8.489245 1.089317 -4.598290 -12.895345 0.000000 -0.000000 0.000000 -4.536196 6.414413 2.120182 2.422194 -0.360915 5.288387 1.951752 1.344278 1.870880 1.809497 14.223407 5.001579 1.960539 6.229218 4.398952 -19.140134 0.268213 4.222996 -69.933010 -4.179279 13.163766 14.188847 -32.410441 23.495452 0.541060 5.034732 -1.828199 21.594536 -1.653427 6.856533 70.377046 2.477267 9.164911 -24.373339 24.917605 3.558202 6.120603 -3.814818 -4.889205 
